<svg width="219" height="201" fill="none" xmlns="http://www.w3.org/2000/svg"><g opacity=".4"><path d="M155.688 1.81 195.723.35l-1.452 40.05-6.673-.234 1.021-27.981L59.566 141.286l-4.719-4.721L183.907 7.456l-27.978 1.022-.241-6.669Z" fill="url(#a)" style="mix-blend-mode:screen"/><path d="m128.396 89.942-.197-5.545 33.28-1.219-1.203 33.3-5.55-.197.853-23.26L48.291 200.35l-3.924-3.926L151.662 89.088l-23.266.854Z" fill="url(#b)" style="mix-blend-mode:screen"/><path d="m173.981 104.024-.095-2.693 16.155-.591-.583 16.169-2.692-.095.409-11.295-52.084 52.104-1.903-1.905 52.083-52.103-11.29.409Z" fill="url(#c)" style="mix-blend-mode:screen"/><path d="m104.808 102.28-.094-2.693 16.155-.59-.584 16.161-2.691-.095.408-11.288-52.083 52.096-1.903-1.904 52.09-52.103-11.298.416Z" fill="url(#d)" style="mix-blend-mode:screen"/><path d="m75.817 16.307-.095-2.692 16.155-.591-.59 16.161-2.692-.095.416-11.287-52.084 52.096-1.903-1.905 52.083-52.103-11.29.416Z" fill="url(#e)" style="mix-blend-mode:screen"/><path d="m187.97 53.285-.051-1.364 8.198-.3-.299 8.201-1.364-.043.211-5.735-26.432 26.442-.962-.97 26.424-26.443-5.725.212Z" fill="url(#f)" style="mix-blend-mode:screen"/><path d="m93.57 77.545-.045-1.364 8.198-.3-.299 8.202-1.364-.044.205-5.735-26.425 26.442-.97-.97 26.432-26.435-5.733.204Z" fill="url(#g)" style="mix-blend-mode:screen"/><path d="m210.251 98.515-.043-1.365 8.198-.299-.299 8.201-1.364-.043.204-5.735-26.425 26.442-.97-.971 26.432-26.434-5.733.204Z" fill="url(#h)" style="mix-blend-mode:screen"/><path d="m130.949 3.108-.044-1.365 8.198-.299-.299 8.201-1.364-.05.204-5.728L111.219 30.3l-.97-.963 26.432-26.442-5.732.212Z" fill="url(#i)" style="mix-blend-mode:screen"/><path d="m110.359 68.753.846-23.26L3.924 152.821 0 148.896 107.296 41.56l-23.267.853-.197-5.552 33.281-1.211-1.204 33.3-5.55-.197Z" fill="url(#j)" style="mix-blend-mode:screen"/></g><defs><linearGradient id="a" x1="180.481" y1="-8.452" x2="85.375" y2="156.196" gradientUnits="userSpaceOnUse"><stop offset=".11" stop-color="#CAFF33"/><stop offset="1" stop-color="#191919" stop-opacity="0"/></linearGradient><linearGradient id="b" x1="148.809" y1="75.86" x2="69.736" y2="212.741" gradientUnits="userSpaceOnUse"><stop offset=".11" stop-color="#CAFF33"/><stop offset="1" stop-color="#191919" stop-opacity="0"/></linearGradient><linearGradient id="c" x1="183.89" y1="97.188" x2="145.503" y2="163.638" gradientUnits="userSpaceOnUse"><stop offset=".11" stop-color="#CAFF33"/><stop offset="1" stop-color="#191919" stop-opacity="0"/></linearGradient><linearGradient id="d" x1="114.718" y1="95.444" x2="76.338" y2="161.89" gradientUnits="userSpaceOnUse"><stop offset=".11" stop-color="#CAFF33"/><stop offset="1" stop-color="#191919" stop-opacity="0"/></linearGradient><linearGradient id="e" x1="85.726" y1="9.472" x2="47.347" y2="75.917" gradientUnits="userSpaceOnUse"><stop offset=".11" stop-color="#CAFF33"/><stop offset="1" stop-color="#191919" stop-opacity="0"/></linearGradient><linearGradient id="f" x1="192.996" y1="49.819" x2="173.516" y2="83.536" gradientUnits="userSpaceOnUse"><stop offset=".11" stop-color="#CAFF33"/><stop offset="1" stop-color="#191919" stop-opacity="0"/></linearGradient><linearGradient id="g" x1="98.602" y1="74.079" x2="79.124" y2="107.8" gradientUnits="userSpaceOnUse"><stop offset=".11" stop-color="#CAFF33"/><stop offset="1" stop-color="#191919" stop-opacity="0"/></linearGradient><linearGradient id="h" x1="215.284" y1="95.049" x2="195.806" y2="128.77" gradientUnits="userSpaceOnUse"><stop offset=".11" stop-color="#CAFF33"/><stop offset="1" stop-color="#191919" stop-opacity="0"/></linearGradient><linearGradient id="i" x1="135.981" y1="-.358" x2="116.511" y2="33.359" gradientUnits="userSpaceOnUse"><stop offset=".11" stop-color="#CAFF33"/><stop offset="1" stop-color="#191919" stop-opacity="0"/></linearGradient><linearGradient id="j" x1="104.442" y1="28.332" x2="25.369" y2="165.213" gradientUnits="userSpaceOnUse"><stop offset=".11" stop-color="#CAFF33"/><stop offset="1" stop-color="#191919" stop-opacity="0"/></linearGradient></defs></svg>