<svg width="29" height="28" viewBox="0 0 29 28" fill="none" xmlns="http://www.w3.org/2000/svg">
<g id="Icon">
<path id="Shape" d="M28.116 17.0521C26.2714 24.4103 18.7771 28.888 11.3773 27.0535C3.98096 25.219 -0.521915 17.7659 1.32317 10.4081C3.16697 3.04897 10.6608 -1.4296 18.0584 0.404923C25.4578 2.23944 29.9602 9.69341 28.1156 17.0521H28.116Z" fill="#262626"/>
<path id="Shape_2" fill-rule="evenodd" clip-rule="evenodd" d="M18.8764 12.1338C19.0626 10.8939 18.1134 10.2274 16.8155 9.78278L17.2365 8.10324L16.2082 7.84846L15.7983 9.48373C15.5283 9.41676 15.2508 9.35358 14.975 9.29097L15.3878 7.64492L14.3604 7.39014L13.9391 9.06909C13.7154 9.01843 13.4958 8.96834 13.2826 8.91564L13.2838 8.9104L11.8661 8.55836L11.5926 9.65029C11.5926 9.65029 12.3554 9.82413 12.3393 9.8349C12.7556 9.93827 12.8312 10.2123 12.8183 10.4295L12.3387 12.3428C12.3674 12.3501 12.4046 12.3606 12.4455 12.3769L12.3372 12.3501L11.6647 15.0305C11.6137 15.1562 11.4846 15.3449 11.1936 15.2733C11.2038 15.2882 10.4464 15.0878 10.4464 15.0878L9.93604 16.2584L11.2741 16.59C11.4251 16.6277 11.5743 16.6664 11.7219 16.7047C11.8175 16.7295 11.9124 16.7541 12.0067 16.7781L11.5812 18.4772L12.608 18.732L13.0297 17.0513C13.3099 17.127 13.5822 17.1968 13.8486 17.2627L13.4287 18.9355L14.4567 19.1903L14.8822 17.4947C16.6351 17.8246 17.9535 17.6916 18.5078 16.1151C18.9549 14.8456 18.4858 14.1132 17.5635 13.6354C18.2352 13.4808 18.7411 13.0414 18.8761 12.1338H18.8764ZM16.5256 15.4089C16.2338 16.5741 14.3994 16.0919 13.5609 15.8716C13.4858 15.8518 13.4187 15.8342 13.3614 15.82L13.9259 13.5695C13.9959 13.5868 14.0815 13.6059 14.1784 13.6276L14.1784 13.6276C15.0459 13.8212 16.8238 14.2179 16.5259 15.4089H16.5256ZM14.3529 12.5835C15.0526 12.7691 16.5777 13.1737 16.8434 12.1152C17.115 11.0324 15.632 10.706 14.9077 10.5466C14.8263 10.5287 14.7545 10.5129 14.6958 10.4983L14.184 12.5395C14.2324 12.5515 14.2893 12.5666 14.3529 12.5835Z" fill="#CAFF33"/>
</g>
</svg>
