<svg width="29" height="28" viewBox="0 0 29 28" fill="none" xmlns="http://www.w3.org/2000/svg">
<g id="Icon">
<path id="Oval" fill-rule="evenodd" clip-rule="evenodd" d="M14.4543 27.4642C22.082 27.4642 28.2654 21.3147 28.2654 13.7289C28.2654 6.14315 22.082 -0.00634766 14.4543 -0.00634766C6.82654 -0.00634766 0.643066 6.14315 0.643066 13.7289C0.643066 21.3147 6.82654 27.4642 14.4543 27.4642Z" fill="#262626"/>
<path id="Shape" fill-rule="evenodd" clip-rule="evenodd" d="M13.2442 7.38989C14.0027 7.38989 14.7585 7.38989 15.517 7.38989C15.4723 7.90018 15.4249 8.41325 15.3831 8.92354C16.2671 8.98733 17.1288 9.27021 17.904 9.68898C17.5694 10.5265 17.232 11.3641 16.8946 12.2016C16.242 11.6497 15.3831 11.3447 14.527 11.3557C14.3123 11.3613 14.0892 11.4029 13.9107 11.5249C13.7936 11.6053 13.7071 11.7301 13.682 11.8688C13.6625 11.9797 13.6681 12.1045 13.7294 12.2044C13.7992 12.3153 13.9219 12.3819 14.0446 12.4235C14.2955 12.5122 14.566 12.5178 14.8282 12.5455C15.4445 12.6204 16.0635 12.7258 16.6464 12.9449C17.0981 13.1168 17.5304 13.3747 17.8399 13.7519C18.1327 14.0986 18.3028 14.5367 18.367 14.986C18.4423 15.5046 18.4199 16.0427 18.2582 16.5474C18.1327 16.9523 17.918 17.3295 17.6391 17.6484C17.0619 18.314 16.2141 18.7134 15.3441 18.816C15.372 19.3623 15.4054 19.9059 15.4361 20.4522C14.7166 20.4522 13.9999 20.4522 13.2833 20.4522C13.3111 19.9115 13.3474 19.3707 13.3725 18.8299C12.7952 18.8104 12.2236 18.6829 11.6854 18.4804C11.1639 18.2835 10.6675 18.0228 10.2046 17.7178C10.5448 16.8469 10.885 15.9761 11.228 15.1025C11.6156 15.427 12.0284 15.7293 12.4801 15.9595C12.9654 16.2063 13.5036 16.3644 14.0501 16.3699C14.3095 16.3727 14.5772 16.3588 14.8226 16.2701C14.9732 16.2146 15.121 16.1175 15.1879 15.965C15.2576 15.8042 15.252 15.6017 15.1461 15.4575C15.0708 15.3604 14.9648 15.2939 14.8533 15.2467C14.7027 15.1857 14.5465 15.1524 14.3876 15.1275C13.8019 15.0332 13.2135 14.9555 12.6474 14.7725C12.1929 14.6255 11.7495 14.4203 11.387 14.1041C11.1583 13.9072 10.9687 13.6659 10.8348 13.3941C10.634 12.9892 10.5587 12.5316 10.5643 12.0824C10.5643 11.5804 10.6675 11.0701 10.9185 10.6291C11.136 10.2353 11.4678 9.91362 11.8415 9.66679C12.2933 9.37005 12.798 9.16759 13.3111 9.00397C13.2888 8.46594 13.2665 7.92792 13.2442 7.38989Z" fill="#CAFF33"/>
</g>
</svg>
