<svg width="28" height="28" viewBox="0 0 28 28" fill="none" xmlns="http://www.w3.org/2000/svg">
<g id="Icon">
<path id="Shape" d="M27.5851 13.7295C27.5851 21.2753 21.4343 27.3925 13.8468 27.3925C6.25926 27.3925 0.108398 21.2753 0.108398 13.7295C0.108398 6.18371 6.25926 0.0666504 13.8468 0.0666504C21.4342 0.0666504 27.5851 6.18371 27.5851 13.7295Z" fill="#262626"/>
<g id="Group" opacity="0.8">
<path id="Shape_2" d="M13.8017 7.39062L13.7168 7.67746V16.0008L13.8017 16.0851L17.6866 13.8013L13.8017 7.39062Z" fill="#CAFF33"/>
<path id="Shape_3" d="M13.8029 7.39062L9.91797 13.8013L13.8029 16.0851V12.0452V7.39062Z" fill="#CAFF33"/>
<path id="Shape_4" d="M13.8027 17.342L13.7549 17.3999V20.3649L13.8027 20.5038L17.69 15.0593L13.8027 17.342Z" fill="#CAFF33"/>
<path id="Shape_5" d="M13.8029 20.5038V17.342L9.91797 15.0593L13.8029 20.5038Z" fill="#CAFF33"/>
<path id="Shape_6" d="M13.8027 16.085L17.6876 13.8013L13.8027 12.0452V16.085Z" fill="#CAFF33"/>
<path id="Shape_7" d="M9.91797 13.8013L13.8029 16.0851V12.0452L9.91797 13.8013Z" fill="#CAFF33"/>
</g>
</g>
</svg>
