<svg width="29" height="28" viewBox="0 0 29 28" fill="none" xmlns="http://www.w3.org/2000/svg">
<g id="Icon">
<path id="Shape" d="M28.3209 13.73C28.3209 21.2758 22.1701 27.393 14.5827 27.393C6.9951 27.393 0.844238 21.2758 0.844238 13.73C0.844238 6.1842 6.9951 0.0671387 14.5827 0.0671387C22.17 0.0671387 28.3209 6.1842 28.3209 13.73Z" fill="#262626"/>
<g id="euro-currency-symbol">
<path id="Shape_2" d="M18.4426 19.4381L18.1256 18.0065C18.1076 17.9223 18.0623 17.8592 17.9897 17.8174C17.9112 17.7753 17.8328 17.7695 17.7544 17.7995L17.7091 17.8174L17.6003 17.8444C17.5519 17.8562 17.4961 17.8698 17.4327 17.8848C17.3693 17.8998 17.2955 17.9147 17.2109 17.9298C17.1267 17.9448 17.0372 17.9584 16.9439 17.9704C16.8504 17.9822 16.7494 17.9929 16.6407 18.0019C16.5319 18.0108 16.4234 18.0153 16.3146 18.0153C15.548 18.0153 14.8583 17.8098 14.2457 17.3986C13.633 16.9873 13.1818 16.4305 12.8921 15.7282H16.396C16.4625 15.7282 16.5228 15.7058 16.577 15.6607C16.6315 15.6157 16.6647 15.5603 16.6765 15.494L16.8938 14.4855C16.912 14.3957 16.8938 14.3145 16.8397 14.2424C16.7793 14.1703 16.7037 14.1343 16.6133 14.1343H12.4575C12.4394 13.7261 12.4394 13.4109 12.4575 13.1888H16.876C17.0391 13.1888 17.1356 13.1108 17.1658 12.9547L17.3831 11.9282C17.4011 11.8442 17.3802 11.7662 17.3197 11.6941C17.2655 11.6221 17.1901 11.5859 17.0935 11.5859H12.856C13.1578 10.9136 13.6104 10.3853 14.2141 10.0011C14.8178 9.61681 15.4999 9.42477 16.2604 9.42477C16.2846 9.41279 16.3736 9.41582 16.5274 9.43379C16.6813 9.45171 16.769 9.45928 16.79 9.45625C16.8109 9.45328 16.8897 9.46234 17.0253 9.48322C17.1612 9.50422 17.2292 9.51475 17.2292 9.51475L17.3876 9.54623C17.433 9.55531 17.4677 9.56269 17.4918 9.56878L17.528 9.57774C17.6064 9.60187 17.6787 9.5943 17.7453 9.55531C17.8118 9.51617 17.8541 9.45773 17.8722 9.3797L18.2616 7.94799C18.2796 7.86993 18.2705 7.79789 18.2345 7.73188C18.1801 7.65972 18.1196 7.61471 18.0532 7.59677C17.498 7.45872 16.9122 7.38965 16.2967 7.38965C14.9444 7.38965 13.7358 7.77395 12.6703 8.54225C11.6049 9.3106 10.87 10.3252 10.4655 11.5858H9.57828C9.49373 11.5858 9.42437 11.6128 9.37001 11.6668C9.31582 11.7208 9.28857 11.7898 9.28857 11.8739V12.9004C9.28857 12.9845 9.31572 13.0535 9.37001 13.1074C9.4244 13.1615 9.49386 13.1884 9.57828 13.1884H10.185C10.1667 13.4767 10.1638 13.7916 10.1758 14.134H9.57828C9.49982 14.134 9.43192 14.1625 9.37458 14.2195C9.31727 14.2765 9.28857 14.3441 9.28857 14.422V15.4396C9.28857 15.5177 9.31727 15.5851 9.37458 15.6423C9.43195 15.6993 9.49982 15.7276 9.57828 15.7276H10.4385C10.8187 17.0542 11.5371 18.1094 12.5935 18.8927C13.6499 19.6763 14.8843 20.0679 16.2967 20.0679C16.4115 20.0679 16.5276 20.0651 16.6454 20.0588C16.7633 20.0528 16.8733 20.0437 16.9759 20.0319C17.0785 20.02 17.1797 20.0066 17.2793 19.9915C17.3788 19.9764 17.4694 19.9616 17.5508 19.9464C17.6323 19.9315 17.7093 19.9165 17.7816 19.9016C17.8541 19.8864 17.919 19.8701 17.9765 19.852C18.0338 19.8342 18.0818 19.8205 18.1212 19.8117C18.1605 19.8027 18.1922 19.792 18.2162 19.7802L18.2616 19.7711C18.328 19.7471 18.3793 19.7036 18.4155 19.6404C18.4517 19.5778 18.4606 19.5101 18.4426 19.4381Z" fill="#CAFF33"/>
</g>
</g>
</svg>
